<svg xmlns="http://www.w3.org/2000/svg" width="14" height="15" viewBox="0 0 14 15">
<g style="mix-blend-mode:darken">
<path d="M1503 1165 c-24 -7 -58 -22 -76 -33 -29 -17 -36 -18 -53 -5 -14 11
-43 13 -119 9 -55 -2 -142 -4 -192 -4 -85 -1 -95 -3 -118 -26 -22 -22 -25 -34
-25 -91 0 -36 -4 -65 -8 -65 -5 0 -33 -15 -64 -33 l-55 -34 -47 38 c-66 53
-102 63 -218 56 l-98 -5 0 25 c0 18 -16 42 -49 74 l-48 49 -102 0 c-101 0
-103 0 -133 -31 l-31 -30 6 -192 c6 -177 19 -337 32 -396 4 -13 26 -43 50 -67
l43 -44 182 0 c176 0 182 1 204 23 l23 23 27 -23 c24 -20 38 -23 109 -23 60 0
89 4 106 16 19 14 27 14 49 4 18 -8 108 -14 266 -17 229 -4 240 -4 267 16 27
20 29 20 66 4 27 -12 67 -17 138 -18 85 0 106 3 143 23 l42 22 30 -21 c28 -22
38 -22 309 -23 l279 -1 45 32 c41 28 47 30 59 16 27 -33 91 -53 169 -53 75 0
77 0 89 -30 7 -16 32 -48 56 -70 41 -38 47 -40 104 -40 108 0 160 38 160 116
0 42 1 43 58 69 119 54 162 128 162 275 0 113 -19 165 -82 226 -79 78 -105 88
-233 92 -81 3 -122 0 -154 -11 -42 -15 -47 -15 -85 5 -34 18 -53 20 -126 16
-48 -3 -97 -11 -110 -18 -15 -8 -57 -12 -113 -11 -67 2 -95 -2 -113 -14 -22
-14 -27 -14 -46 0 -16 10 -47 15 -106 15 -75 0 -85 -2 -107 -25 l-25 -24 -25
24 c-15 16 -36 25 -55 25 -27 0 -30 3 -30 32 0 25 -10 41 -47 76 -27 24 -59
50 -73 57 -65 33 -230 44 -307 20z m260 -93 c26 -12 47 -24 47 -28 0 -4 -8
-31 -17 -61 -18 -58 -27 -62 -78 -38 -22 11 -54 15 -101 13 -66 -3 -69 -4 -72
-29 -4 -32 6 -40 94 -73 89 -33 144 -89 144 -145 0 -20 -6 -21 -92 -21 -86 0
-96 2 -175 40 -97 47 -123 83 -123 171 0 86 48 154 132 186 49 19 184 10 241
-15z m-423 -67 l0 -56 -67 3 -68 3 -3 53 -3 52 70 0 71 0 0 -55z m-224 -35 c6
-41 15 -119 19 -172 l7 -98 -51 0 -50 0 -3 -57 c-3 -56 -4 -58 -33 -61 -16 -2
-38 3 -49 11 -16 12 -14 13 17 9 34 -4 36 -2 43 33 6 36 0 118 -12 136 -16 27
-72 0 -87 -43 -4 -11 -20 -18 -49 -20 l-43 -3 1 -50 c1 -30 10 -68 23 -93 12
-23 19 -42 16 -42 -3 0 -19 28 -35 63 -63 133 -21 234 123 296 l47 20 0 76 0
76 53 -3 52 -3 11 -75z m-809 48 c0 -13 3 -82 8 -154 l8 -132 -73 6 -73 5 7
-74 c17 -187 17 -194 7 -178 -15 23 -41 296 -41 430 l0 119 79 0 c75 0 79 -1
78 -22z m2451 -105 c16 -14 72 -158 72 -184 0 -4 -51 -10 -112 -14 -139 -8
-145 -10 -163 -45 -19 -37 -19 -81 -1 -125 21 -50 9 -43 -14 8 -43 93 -19 155
75 198 101 46 94 83 -12 59 -64 -14 -76 -7 -71 41 3 29 10 37 48 57 56 28 148
31 178 5z m389 -19 c35 -26 63 -79 63 -121 0 -31 -2 -33 -34 -33 -31 0 -34 -2
-40 -41 -10 -64 -75 -113 -123 -94 -14 5 -8 11 26 23 60 23 87 72 71 131 -16
61 -69 88 -121 61 -14 -8 -19 -21 -19 -49 0 -37 -1 -39 -40 -45 l-40 -6 0
-186 c0 -121 -3 -183 -10 -179 -6 4 -10 107 -10 276 l0 270 23 9 c12 6 68 9
124 7 84 -2 107 -6 130 -23z m-2487 -13 c37 -20 75 -81 86 -140 l7 -34 -57 5
c-49 4 -56 3 -51 -11 8 -21 25 -214 19 -220 -11 -12 -18 18 -25 112 -11 153
-29 187 -96 187 -33 0 -53 -16 -53 -42 0 -15 -6 -17 -45 -11 l-45 6 0 -127 c0
-77 -4 -126 -10 -126 -6 0 -10 73 -10 200 0 199 0 200 23 205 97 21 214 19
257 -4z m1300 -86 l0 -105 -45 0 -45 0 0 -101 c0 -64 -4 -98 -10 -94 -6 4 -10
83 -10 206 l0 199 55 0 55 0 0 -105z m270 5 l0 -100 -50 0 c-52 0 -53 -1 -64
-53 -9 -41 -41 -67 -80 -67 -19 0 -38 5 -41 10 -4 6 6 10 23 10 63 0 90 66 91
223 l1 77 60 0 60 0 0 -100z m252 13 c-2 -49 -5 -94 -7 -100 -3 -8 -22 -13
-48 -13 -44 0 -45 0 -56 -44 -6 -26 -21 -52 -33 -60 -25 -18 -98 -22 -98 -6 0
6 13 10 29 10 65 0 82 38 96 213 l7 87 57 0 56 0 -3 -87z m-1162 10 c0 -32 3
-74 6 -94 l6 -37 -47 5 -46 6 3 -112 c3 -106 -3 -137 -16 -88 -3 12 -6 99 -6
194 0 187 -2 181 63 182 l37 1 0 -57z"/>
</g>
</svg>
